<svg width="49" height="48" viewBox="0 0 49 48" fill="none" xmlns="http://www.w3.org/2000/svg">
<rect x="0.5" width="48" height="48" rx="5" fill="#8257E5"/>
<path d="M34.2875 22.7334L20.78 14.4703C20.5523 14.3308 20.2914 14.2547 20.0244 14.2498C19.7575 14.2448 19.494 14.3112 19.2613 14.4422C19.0307 14.5711 18.8387 14.759 18.7049 14.9867C18.5711 15.2144 18.5004 15.4737 18.5 15.7378V32.2622C18.5017 32.6583 18.6607 33.0376 18.942 33.3166C19.2233 33.5956 19.6038 33.7515 20 33.75C20.2765 33.7499 20.5477 33.6736 20.7838 33.5297L34.2875 25.2665C34.5046 25.1342 34.684 24.9483 34.8084 24.7267C34.9329 24.5051 34.9983 24.2551 34.9983 24.0009C34.9983 23.7467 34.9329 23.4968 34.8084 23.2751C34.684 23.0535 34.5046 22.8676 34.2875 22.7353V22.7334ZM20 32.2444V15.75L33.4841 24L20 32.2444Z" fill="white"/>
</svg>
